<svg width="42" height="39" viewBox="0 0 42 39" fill="none" xmlns="http://www.w3.org/2000/svg">
<path d="M4.6719 0.125C3.5323 0.125 2.43937 0.577705 1.63355 1.38353C0.827734 2.18935 0.375029 3.28227 0.375029 4.42188V15.25H0.377779C0.375737 15.3073 0.37482 15.3646 0.375029 15.4219V34.3996C0.375029 35.5392 0.827734 36.6322 1.63355 37.438C2.43937 38.2438 3.5323 38.6965 4.6719 38.6965H37.3282C38.4678 38.6965 39.5607 38.2438 40.3665 37.438C41.1723 36.6322 41.625 35.5392 41.625 34.3996V15.4219C41.625 15.3641 41.625 15.3064 41.6209 15.25H41.625V9.93838C41.625 8.79877 41.1723 7.70585 40.3665 6.90003C39.5607 6.09421 38.4678 5.6415 37.3282 5.6415H22.2197C21.8099 5.6415 21.4167 5.47925 21.1265 5.18913L17.7207 1.786C17.1943 1.25925 16.5692 0.841432 15.8812 0.556424C15.1932 0.271417 14.4558 0.124815 13.7112 0.125H4.6719ZM38.875 11.4124C38.3815 11.222 37.8571 11.1245 37.3282 11.125H4.6719C4.14294 11.1243 3.61844 11.2217 3.12503 11.4124V4.42188C3.12503 3.568 3.81803 2.875 4.6719 2.875H13.7112C14.4867 2.875 15.2292 3.183 15.7764 3.73025L19.1823 7.13475C19.988 7.93912 21.0798 8.3915 22.221 8.3915H37.3282C38.1834 8.3915 38.875 9.0845 38.875 9.93838V11.4124ZM3.12503 15.4219C3.12503 14.568 3.81803 13.875 4.6719 13.875H37.3282C38.1834 13.875 38.875 14.568 38.875 15.4219V34.3996C38.875 35.2549 38.1834 35.9465 37.3282 35.9465H4.6719C4.26165 35.9465 3.86819 35.7835 3.5781 35.4934C3.288 35.2033 3.12503 34.8099 3.12503 34.3996V15.4219Z" fill="#009381"/>
</svg>
