<svg width="35" height="56" viewBox="0 0 35 56" fill="none" xmlns="http://www.w3.org/2000/svg">
<path d="M31.1504 12.0591L19.8004 33.7591V46.9091H15.2504V33.7591L3.85039 12.0591H8.90039L17.5004 29.7091L26.1004 12.0591H31.1504Z" fill="white"/>
<path d="M17.7934 47.2591C15.4934 47.2591 13.46 46.8591 11.6934 46.0591C9.96003 45.2591 8.59336 44.1424 7.59336 42.7091C6.59336 41.2758 6.06003 39.6758 5.99336 37.9091H9.69336C9.86003 39.6091 10.61 41.1091 11.9434 42.4091C13.2767 43.6758 15.2267 44.3091 17.7934 44.3091C20.16 44.3091 22.0267 43.7091 23.3934 42.5091C24.7934 41.2758 25.4934 39.7258 25.4934 37.8591C25.4934 36.3591 25.11 35.1591 24.3434 34.2591C23.5767 33.3258 22.6267 32.6424 21.4934 32.2091C20.36 31.7424 18.7934 31.2424 16.7934 30.7091C14.46 30.0758 12.61 29.4591 11.2434 28.8591C9.87669 28.2591 8.71003 27.3258 7.74336 26.0591C6.77669 24.7924 6.29336 23.0758 6.29336 20.9091C6.29336 19.1091 6.76003 17.5091 7.69336 16.1091C8.62669 14.6758 9.94336 13.5591 11.6434 12.7591C13.3434 11.9591 15.2934 11.5591 17.4934 11.5591C20.7267 11.5591 23.3267 12.3591 25.2934 13.9591C27.2934 15.5258 28.4434 17.5591 28.7434 20.0591H24.9434C24.71 18.6258 23.9267 17.3591 22.5934 16.2591C21.26 15.1258 19.46 14.5591 17.1934 14.5591C15.0934 14.5591 13.3434 15.1258 11.9434 16.2591C10.5434 17.3591 9.84336 18.8758 9.84336 20.8091C9.84336 22.2758 10.2267 23.4591 10.9934 24.3591C11.76 25.2591 12.71 25.9424 13.8434 26.4091C15.01 26.8758 16.5767 27.3758 18.5434 27.9091C20.81 28.5424 22.6434 29.1758 24.0434 29.8091C25.4434 30.4091 26.6267 31.3424 27.5934 32.6091C28.56 33.8758 29.0434 35.5758 29.0434 37.7091C29.0434 39.3424 28.61 40.8924 27.7434 42.3591C26.8767 43.8258 25.5934 45.0091 23.8934 45.9091C22.1934 46.8091 20.16 47.2591 17.7934 47.2591Z" fill="#009381"/>
</svg>
